# Blender 3.3.1
# www.blender.org
mtllib placeable wall.mtl
o Wall
v 3.000000 4.000000 -0.200000
v 3.000000 0.000000 -0.200000
v 3.000000 4.000000 0.200000
v 3.000000 0.000000 0.200000
v -3.000000 4.000000 -0.200000
v -3.000000 0.000000 -0.200000
v -3.000000 4.000000 0.200000
v -3.000000 0.000000 0.200000
v 1.750000 1.900000 0.200000
v 1.750000 0.900000 0.200000
v -1.750000 0.900000 0.200000
v -1.750000 1.900000 0.200000
v -1.750000 0.900000 -0.200000
v -1.750000 1.900000 -0.200000
v 1.750000 1.900000 -0.200000
v 1.750000 0.900000 -0.200000
vn -0.0000 1.0000 -0.0000
vn -0.0000 -0.0000 1.0000
vn -1.0000 -0.0000 -0.0000
vn -0.0000 -1.0000 -0.0000
vn 1.0000 -0.0000 -0.0000
vn -0.0000 -0.0000 -1.0000
vt 0.625000 0.500000
vt 0.375000 0.500000
vt 0.625000 0.750000
vt 0.375000 0.750000
vt 0.875000 0.500000
vt 0.625000 0.250000
vt 0.125000 0.500000
vt 0.375000 0.250000
vt 0.875000 0.750000
vt 0.625000 1.000000
vt 0.625000 0.000000
vt 0.375000 1.000000
vt 0.375000 0.000000
vt 0.125000 0.750000
vt 0.493750 0.802083
vt 0.625000 0.637500
vt 0.431250 0.802083
vt 0.375000 0.637500
vt 0.431250 0.947917
vt 0.375000 0.112500
vt 0.125000 0.637500
vt 0.493750 0.947917
vt 0.875000 0.637500
vt 0.625000 0.112500
vt 0.431250 0.302083
vt 0.375000 0.137500
vt 0.125000 0.612500
vt 0.493750 0.302083
vt 0.875000 0.612500
vt 0.625000 0.137500
vt 0.493750 0.447917
vt 0.625000 0.612500
vt 0.431250 0.447917
vt 0.375000 0.612500
s 0
usemtl Material
f 1/1/1 5/5/1 7/9/1 3/3/1
f 4/4/2 3/3/2 7/10/2 8/12/2 11/19/2 12/22/2 9/15/2 10/17/2
f 11/19/2 8/12/2 4/4/2 10/17/2
f 8/13/3 7/11/3 5/6/3 6/8/3
f 6/7/4 2/2/4 4/4/4 8/14/4
f 2/2/5 1/1/5 3/3/5 4/4/5
f 13/25/6 6/8/6 5/6/6 1/1/6 2/2/6 16/33/6 15/31/6 14/28/6
f 2/2/6 6/8/6 13/25/6 16/33/6
usemtl Material.001
f 9/16/4 12/23/4 14/29/4 15/32/4
f 12/24/5 11/20/5 13/26/5 14/30/5
f 13/27/1 11/21/1 10/18/1 16/34/1
f 16/34/3 10/18/3 9/16/3 15/32/3
